<?xml version="1.0" standalone="no"?>
<!DOCTYPE svg PUBLIC "-//W3C//DTD SVG 20010904//EN"
 "http://www.w3.org/TR/2001/REC-SVG-20010904/DTD/svg10.dtd">
<svg version="1.0" xmlns="http://www.w3.org/2000/svg"
 width="519.000000pt" height="536.000000pt" viewBox="0 0 519.000000 536.000000"
 preserveAspectRatio="xMidYMid meet">

<g transform="translate(0.000000,536.000000) scale(0.100000,-0.100000)"
fill="#000000" stroke="none">
<path d="M2460 5354 c-14 -3 -43 -7 -65 -9 l-41 -6 -33 -89 c-18 -50 -37 -93
-41 -95 -5 -3 -34 31 -65 75 l-56 80 -47 -1 c-26 -1 -59 -4 -73 -8 -26 -6 -25
-8 82 -146 91 -118 109 -147 114 -185 3 -25 8 -62 11 -82 l6 -37 46 5 c78 9
75 5 67 98 -8 91 -14 72 109 349 14 31 22 56 18 56 -4 -1 -18 -3 -32 -5z"/>
<path d="M2922 5301 c-162 -56 -214 -256 -101 -385 111 -126 317 -112 403 28
84 134 14 316 -138 361 -64 19 -99 18 -164 -4z m132 -115 c72 -30 99 -116 57
-180 -67 -101 -221 -54 -221 66 0 44 33 96 73 113 41 18 50 18 91 1z"/>
<path d="M1715 5199 c-93 -33 -175 -61 -182 -64 -16 -5 16 -105 34 -105 7 0
36 9 63 19 l51 19 10 -26 c6 -15 33 -89 59 -166 27 -76 51 -140 53 -142 9 -9
112 35 111 47 -1 8 -27 84 -57 171 l-55 156 60 23 c65 24 66 28 35 100 l-12
27 -170 -59z"/>
<path d="M3466 5163 c-49 -96 -176 -397 -169 -403 4 -4 30 -17 56 -29 l48 -21
31 68 c17 37 31 68 33 70 1 1 41 -16 90 -38 48 -22 93 -40 100 -40 7 0 22 21
33 47 l21 48 -62 27 c-34 15 -79 36 -99 45 l-37 18 19 42 19 42 96 -44 c53
-25 102 -45 109 -45 8 0 22 22 33 48 l20 48 -155 70 c-85 38 -158 70 -163 72
-4 2 -14 -10 -23 -25z"/>
<path d="M1338 5032 c-26 -15 -48 -30 -48 -35 0 -4 52 -97 116 -207 l117 -199
46 26 c25 14 50 29 54 33 8 7 -220 411 -232 409 -3 0 -27 -12 -53 -27z"/>
<path d="M1063 4855 c-51 -22 -120 -92 -139 -141 -16 -41 -16 -47 0 -89 38
-98 122 -116 242 -50 72 39 98 41 111 9 10 -26 -60 -86 -95 -83 -39 5 -127
-58 -110 -78 54 -65 164 -52 256 31 70 63 89 133 55 203 -39 83 -115 93 -234
32 -65 -33 -82 -39 -94 -29 -8 7 -15 19 -15 27 0 24 51 63 83 63 32 0 118 57
114 75 -5 18 -71 45 -107 45 -19 -1 -49 -7 -67 -15z"/>
<path d="M4062 4813 c-34 -7 -90 -68 -97 -107 -9 -43 17 -103 74 -171 47 -57
51 -88 10 -93 -34 -4 -89 46 -89 81 0 18 -13 37 -45 63 -25 20 -47 35 -49 33
-28 -33 -34 -101 -12 -152 16 -39 95 -114 141 -133 70 -29 144 -11 184 44 47
66 37 117 -39 207 -59 69 -66 105 -21 105 33 0 86 -53 77 -76 -3 -7 15 -31 42
-53 l47 -40 14 26 c19 37 17 92 -4 137 -22 46 -102 111 -153 126 -38 10 -41
10 -80 3z"/>
<path d="M2390 4634 c-14 -2 -59 -9 -100 -15 -431 -62 -851 -299 -1139 -644
-630 -757 -571 -1865 137 -2547 259 -249 581 -417 943 -490 100 -20 143 -23
349 -23 206 0 249 3 349 23 746 151 1322 715 1477 1447 134 634 -67 1287 -534
1737 -284 274 -640 447 -1035 503 -91 13 -379 19 -447 9z m308 -131 c23 -6 24
-9 17 -62 -7 -54 -6 -55 11 -40 102 85 100 84 148 81 25 -2 46 -7 45 -11 0 -3
-29 -30 -65 -59 l-65 -54 37 -66 c21 -37 44 -77 52 -89 14 -22 13 -23 -14 -23
-54 0 -72 11 -98 61 -15 26 -31 51 -37 55 -17 10 -38 -16 -41 -54 -3 -36 -4
-37 -38 -34 -19 2 -37 6 -41 7 -3 2 3 64 13 137 9 73 18 139 18 146 0 13 22
15 58 5z m-209 -17 c35 -19 57 -62 35 -70 -25 -10 -69 -7 -81 5 -15 15 -63 3
-63 -16 0 -15 16 -21 88 -29 60 -6 82 -29 82 -83 0 -56 -33 -89 -96 -99 -54
-8 -92 1 -121 28 -36 33 -30 58 13 58 19 0 44 -5 54 -10 27 -14 72 -2 68 19
-2 11 -20 18 -58 24 -81 11 -105 33 -105 93 0 44 3 50 34 71 40 27 107 31 150
9z m-269 -127 c22 -71 30 -112 26 -135 -12 -59 -102 -113 -170 -100 -49 9 -81
51 -109 141 -37 119 -37 116 5 131 l38 13 26 -87 c31 -105 50 -128 90 -115 21
7 30 17 32 37 3 23 -21 120 -44 180 -5 13 31 33 63 35 7 1 26 -43 43 -100z
m881 66 c57 -19 109 -37 116 -40 9 -3 10 -12 1 -36 -11 -32 -11 -32 -79 -17
-10 2 -24 -28 -49 -100 l-35 -103 -30 5 c-16 4 -33 10 -37 14 -4 4 8 55 27
112 19 57 35 105 35 105 0 1 -18 7 -39 14 -39 11 -39 11 -28 46 6 19 11 35 12
35 0 0 48 -16 106 -35z m410 -613 c-51 -99 -186 -168 -496 -252 -324 -89 -455
-164 -522 -299 -23 -47 -23 -170 0 -224 l16 -37 -22 12 c-45 24 -124 89 -156
128 -147 183 -97 410 113 506 116 53 196 65 614 94 216 15 360 54 442 119 33
27 38 6 11 -47z m-165 -311 c-34 -65 -92 -92 -340 -157 -93 -25 -202 -60 -241
-78 -121 -56 -194 -140 -195 -223 0 -84 -51 2 -58 98 -5 79 9 128 50 175 68
77 152 106 378 129 223 23 333 49 395 92 26 17 30 2 11 -36z m-2174 -265 c207
-126 324 -190 436 -240 35 -15 62 -29 60 -30 -2 -2 -34 0 -73 4 -54 5 -91 17
-165 54 -52 26 -86 40 -75 31 11 -9 55 -33 97 -53 42 -20 77 -43 77 -51 1 -11
-2 -11 -14 -1 -8 6 -24 9 -37 5 -18 -5 -20 -4 -8 4 16 12 16 12 -41 16 -25 2
-48 11 -179 72 -30 14 -92 49 -137 79 -78 50 -100 74 -70 74 6 0 -7 9 -30 19
-44 20 -73 62 -73 104 0 25 7 37 22 37 4 0 99 -56 210 -124z m3043 105 c13
-42 -50 -131 -93 -131 -11 0 -12 -3 -3 -14 9 -11 -6 -25 -81 -74 -112 -71
-170 -102 -197 -102 -11 0 -23 -5 -26 -10 -9 -15 -75 -41 -86 -34 -10 6 -76
-14 -97 -30 -9 -7 -12 -5 -10 5 2 7 22 21 44 30 48 19 157 80 152 85 -2 2 -49
-19 -103 -46 -80 -39 -113 -49 -162 -52 -35 -3 -61 -3 -59 0 2 2 66 34 143 71
76 38 230 125 343 194 113 70 210 127 217 127 6 0 14 -9 18 -19z m-1122 -66
c-7 -21 -64 -49 -169 -85 -102 -35 -170 -76 -224 -138 -22 -25 -42 -43 -44
-41 -2 2 -9 21 -14 42 -21 76 24 144 109 167 23 6 93 17 157 24 65 7 133 20
152 29 19 8 36 16 37 16 1 1 0 -6 -4 -14z m-2036 -135 c24 -10 62 -32 85 -48
71 -49 198 -108 312 -146 59 -20 118 -44 132 -52 l25 -17 -21 -14 c-12 -8 -24
-12 -27 -9 -4 3 0 6 7 6 9 0 10 3 4 9 -8 7 -125 36 -149 36 -5 0 -16 6 -23 13
-16 15 -32 16 -32 1 0 -5 4 -8 9 -5 10 7 34 -18 25 -26 -3 -3 0 -9 6 -13 6 -3
9 -1 8 6 -2 6 3 14 10 16 7 3 12 1 11 -4 -4 -20 2 -25 16 -13 11 10 19 10 27
2 6 -6 18 -8 27 -5 14 4 14 3 1 -7 -13 -10 -12 -11 3 -6 12 4 16 2 11 -7 -5
-9 -4 -9 7 1 13 12 38 18 26 5 -4 -3 -2 -12 4 -20 8 -9 8 -13 1 -13 -6 0 -14
5 -17 10 -4 6 -11 8 -16 4 -5 -3 -16 -1 -23 5 -8 7 -18 11 -22 10 -5 -1 -11 0
-14 1 -3 1 -18 3 -35 5 -85 9 -152 38 -261 111 -75 50 -184 153 -184 175 0 14
21 11 67 -11z m3103 9 c0 -23 -70 -97 -139 -148 -91 -68 -237 -137 -256 -121
-10 8 -15 8 -21 -1 -5 -8 -3 -9 6 -4 8 5 11 4 7 -2 -3 -5 -16 -9 -29 -8 -13 1
-29 -2 -35 -7 -7 -6 -27 -11 -45 -13 -18 -1 -42 -6 -53 -10 -15 -6 -13 -2 7
13 16 14 33 20 45 16 15 -5 16 -4 3 5 -12 9 -10 11 12 7 15 -3 30 0 34 5 3 6
13 8 21 5 9 -4 12 -2 7 7 -4 6 -4 9 1 5 4 -4 14 -3 21 2 6 6 17 9 24 8 7 -2
15 3 18 11 3 10 0 12 -14 7 -11 -4 -53 -17 -94 -28 -41 -11 -82 -24 -90 -28
-8 -4 -23 -4 -33 -1 -15 6 -7 13 35 34 29 15 59 27 66 27 7 0 10 5 6 12 -4 7
-3 8 5 4 7 -5 24 -5 39 -1 21 5 23 8 11 16 -10 8 -9 9 8 4 29 -8 143 40 253
106 83 50 157 88 173 89 4 0 7 -5 7 -11z m-3068 -163 c35 -13 106 -46 159 -73
85 -44 236 -93 286 -93 20 0 93 -48 93 -62 0 -5 -4 -7 -9 -3 -6 3 -8 -3 -6
-13 3 -16 -2 -18 -23 -15 -15 2 -40 6 -57 8 -107 14 -118 17 -127 30 -8 11 -1
25 13 25 6 0 8 -4 4 -9 -3 -5 -1 -12 4 -15 5 -4 12 -2 16 4 3 5 11 10 17 10 7
0 6 -5 -1 -14 -10 -11 -9 -14 3 -12 9 1 19 5 22 9 11 10 26 8 19 -2 -3 -5 -1
-12 4 -15 5 -4 12 -2 16 4 9 15 28 12 19 -2 -6 -10 -4 -10 7 0 15 14 33 16 24
3 -3 -5 -1 -12 4 -15 5 -4 8 2 7 11 -3 17 -18 22 -78 26 -16 1 -28 6 -28 11 0
4 -9 6 -20 3 -11 -3 -20 -1 -20 5 0 6 -9 8 -20 5 -11 -3 -20 -1 -20 4 0 5 -5
9 -11 9 -8 0 -8 -4 0 -14 8 -10 8 -16 -1 -24 -9 -7 -33 -4 -83 12 -94 30 -196
77 -190 87 3 4 -4 13 -16 20 -35 18 -109 90 -109 105 0 20 31 17 102 -10z
m3078 14 c0 -17 -58 -76 -94 -95 -20 -11 -36 -25 -36 -33 0 -15 -59 -42 -175
-82 -62 -22 -83 -25 -94 -17 -11 9 -13 9 -8 1 4 -7 1 -14 -7 -17 -11 -4 -13 1
-10 19 3 17 0 24 -11 24 -18 0 -19 -12 -4 -27 8 -8 6 -14 -9 -22 -19 -10 -20
-8 -16 14 3 18 0 25 -11 25 -17 0 -20 -16 -5 -25 20 -12 -1 -25 -31 -20 -23 4
-29 2 -23 -7 4 -7 4 -10 -1 -6 -4 4 -16 3 -26 -2 -12 -7 -20 -6 -25 2 -4 6 -3
8 2 5 6 -3 11 3 11 14 1 10 -3 19 -8 19 -6 0 -8 -4 -4 -9 3 -5 1 -12 -5 -16
-6 -4 -8 -10 -5 -15 3 -5 -3 -8 -14 -7 -16 1 -17 4 -9 15 9 10 7 14 -10 19
-20 5 -20 6 7 29 18 15 59 30 117 43 104 22 205 59 260 93 32 21 107 53 184
81 25 9 60 8 60 -3z m-2493 -50 c94 -12 232 -65 231 -88 0 -9 1 -23 3 -31 2
-8 -13 -22 -37 -35 -23 -11 -42 -24 -42 -29 -2 -29 -9 -31 -87 -19 -84 13
-129 33 -152 69 -14 21 -13 23 11 34 21 10 43 8 123 -11 54 -13 103 -31 109
-39 10 -12 12 -11 12 10 0 23 -6 26 -72 36 -122 20 -239 73 -222 101 9 14 27
14 123 2z m1928 1 c17 -29 -101 -84 -226 -105 -58 -10 -73 -16 -71 -29 4 -23
-13 -29 -42 -16 -26 12 -34 33 -16 44 5 3 7 11 4 19 -15 40 327 125 351 87z
m-605 -17 c0 -35 -66 -137 -122 -189 -71 -66 -82 -68 -329 -63 -179 3 -185 4
-230 30 -73 43 -138 123 -159 199 -5 15 -6 30 -2 33 3 3 194 6 424 6 378 0
418 -2 418 -16z m-1019 -91 c54 -49 77 -97 89 -185 9 -65 13 -76 42 -98 18
-14 54 -47 79 -74 l47 -48 79 -4 c43 -3 83 -7 90 -9 9 -3 11 25 6 116 l-6 119
169 0 169 0 -3 -120 c-3 -97 -1 -119 10 -115 7 2 48 6 90 8 l78 5 54 53 c30
30 66 64 79 75 20 17 27 35 32 80 10 89 33 142 83 191 25 23 52 43 59 43 27 0
10 -53 -30 -97 -17 -20 -18 -23 -4 -23 9 0 21 -9 27 -20 13 -24 0 -54 -31 -71
l-21 -11 22 -15 c33 -23 23 -57 -19 -61 -34 -3 -34 -4 -10 -16 30 -15 37 -46
13 -63 -23 -16 -29 -16 -47 1 -12 12 -13 8 -13 -27 1 -36 -2 -42 -20 -45 -12
-2 -29 4 -38 13 -15 15 -16 13 -16 -24 0 -37 -2 -41 -25 -41 -17 0 -29 7 -35
23 -8 21 -9 21 -9 -5 -1 -40 -11 -58 -32 -58 -20 0 -38 27 -33 50 3 8 -4 -4
-15 -26 -11 -23 -25 -45 -31 -49 -16 -10 -41 16 -43 43 -2 26 -10 28 -27 7 -7
-8 -21 -15 -32 -15 -10 0 -17 -4 -13 -10 4 -6 15 -6 31 0 22 9 27 7 31 -10 8
-31 50 -37 77 -10 31 28 41 12 22 -34 -22 -53 -66 -69 -66 -24 0 22 -8 23 -31
2 -24 -21 -42 -8 -37 26 4 28 4 28 -21 12 -19 -13 -21 -18 -9 -20 16 -3 14
-42 -1 -42 -4 0 -8 -20 -8 -45 0 -45 11 -54 52 -45 40 8 45 8 45 -7 0 -19 -32
-67 -77 -114 l-34 -36 -20 -204 c-39 -405 -74 -641 -106 -703 l-15 -30 -14 26
c-27 52 -66 319 -103 706 l-20 203 -48 53 c-53 57 -80 102 -70 113 4 3 14 -2
23 -13 10 -12 14 -14 11 -4 -4 12 3 15 32 12 37 -4 37 -4 36 35 -1 21 -7 48
-13 60 -15 26 -16 46 -2 38 6 -3 10 -2 10 2 0 5 -9 14 -21 21 -19 12 -20 11
-14 -8 4 -12 1 -27 -6 -36 -10 -13 -15 -13 -35 1 -29 19 -38 19 -31 1 3 -8 0
-19 -7 -25 -16 -13 -51 22 -61 60 -9 34 7 44 30 19 23 -26 39 -25 65 2 14 16
31 22 53 21 l32 -2 -32 10 c-18 5 -35 14 -39 21 -4 6 -12 -3 -18 -23 -15 -46
-37 -43 -63 9 -21 42 -22 43 -25 15 -2 -22 -8 -28 -28 -28 -22 0 -26 5 -30 40
-4 33 -6 36 -12 18 -4 -16 -14 -23 -32 -23 -24 0 -26 3 -26 42 0 39 -1 40 -18
25 -23 -21 -61 -22 -68 -2 -3 8 -1 29 5 46 11 31 11 32 -8 15 -16 -14 -23 -15
-41 -6 -28 15 -23 51 10 67 l25 13 -32 0 c-47 0 -62 32 -27 59 l26 20 -26 12
c-46 21 -43 89 3 89 13 0 12 4 -5 18 -26 21 -44 54 -44 81 0 30 14 26 61 -16z
m1624 17 c-3 -5 -11 -10 -16 -10 -6 0 -7 5 -4 10 3 6 11 10 16 10 6 0 7 -4 4
-10z m-47 -9 c46 -29 -57 -95 -165 -107 -60 -6 -63 -5 -71 17 -13 33 6 58 48
65 19 3 55 12 80 19 54 16 90 18 108 6z m-2282 -71 c117 -38 207 -60 299 -75
40 -7 101 -42 90 -53 -8 -8 -45 -10 -45 -2 0 11 -93 21 -102 12 -5 -5 -2 -15
7 -22 13 -11 16 -11 13 0 -2 7 2 14 9 17 6 2 10 -3 9 -11 -3 -23 -14 -30 -29
-18 -7 6 -25 9 -39 7 -20 -4 -26 -1 -24 12 2 9 9 19 16 21 7 3 10 0 6 -6 -3
-6 -1 -14 6 -18 7 -4 10 -4 6 1 -4 4 -2 15 4 23 10 11 8 14 -12 11 -14 -1 -32
1 -40 4 -49 17 -55 18 -42 5 7 -7 20 -13 29 -13 9 0 17 -8 19 -17 3 -23 -42
-19 -146 12 -99 29 -178 72 -226 122 l-39 40 54 -6 c29 -4 109 -25 177 -46z
m2824 41 c0 -13 -63 -66 -112 -94 -24 -14 -90 -40 -147 -58 -87 -27 -106 -30
-123 -20 -11 7 -17 8 -14 3 3 -6 -1 -12 -8 -15 -10 -4 -13 0 -11 14 4 21 -22
39 -34 23 -6 -9 -42 -14 -95 -14 -24 0 -27 -2 -17 -14 10 -12 8 -17 -8 -25
-21 -12 -40 2 -20 15 8 5 9 3 4 -6 -5 -9 -4 -11 4 -6 6 4 9 12 5 17 -3 5 -9 7
-14 4 -20 -12 -18 14 3 32 15 13 61 27 137 42 63 12 162 38 220 57 143 48 230
65 230 45z m-2165 -31 c3 -5 0 -10 -7 -10 -10 0 -10 -2 1 -9 9 -6 10 -11 2
-15 -6 -4 -11 -16 -11 -26 0 -24 -44 -38 -65 -20 -22 19 -18 35 16 64 32 27
54 33 64 16z m1354 -16 c34 -29 38 -45 16 -64 -33 -27 -71 3 -80 65 -5 33 24
33 64 -1z m-1453 -68 c63 -67 -108 -78 -183 -11 -41 36 -18 48 82 40 66 -5 84
-10 101 -29z m1679 10 c0 -30 -57 -58 -129 -63 -58 -5 -65 -3 -75 16 -7 12 -8
21 -2 21 5 0 12 9 16 19 6 21 46 29 140 27 43 -1 50 -4 50 -20z m-1592 -35
c-2 -6 4 -11 12 -11 24 0 18 -27 -7 -34 -68 -18 -96 4 -54 41 28 24 53 26 49
4z m1355 -1 c19 -11 32 -26 29 -33 -5 -17 -47 -20 -83 -7 -27 11 -28 13 -11
24 9 7 17 18 17 25 0 16 10 14 48 -9z m-1981 -21 c78 -27 241 -59 297 -59 32
0 56 -7 82 -25 l37 -25 -94 -1 c-52 -1 -85 -4 -74 -7 21 -7 26 -24 12 -38 -21
-21 -272 20 -313 51 -15 11 -16 14 -4 15 8 0 -5 12 -30 26 -56 32 -90 63 -90
82 0 19 96 9 177 -19z m2743 22 c0 -16 -65 -73 -104 -91 -30 -14 -35 -19 -20
-22 29 -7 -37 -34 -131 -52 -76 -15 -291 -29 -280 -18 3 3 -2 13 -10 22 -14
15 -11 16 33 16 26 -1 52 -4 57 -8 6 -3 19 0 30 8 17 12 8 14 -74 14 l-93 0
30 25 c22 19 41 25 75 25 63 0 202 26 294 54 110 34 193 46 193 27z m-364 -26
c-3 -20 -13 -28 -26 -20 -8 5 -8 11 1 21 15 18 28 18 25 -1z m-39 -11 c0 -8
-3 -14 -6 -15 -3 0 -16 -2 -28 -5 -22 -4 -28 13 -11 26 15 12 45 8 45 -6z
m-2055 -9 c0 -5 -5 -11 -10 -13 -5 -1 -9 4 -9 13 0 9 4 14 9 13 5 -2 10 -8 10
-13z m32 8 c4 -4 13 -8 19 -8 7 0 12 -4 12 -10 0 -5 -4 -8 -10 -6 -5 2 -17 4
-26 3 -9 0 -16 6 -16 14 0 15 9 18 21 7z m1958 -8 c0 -5 -5 -11 -10 -13 -5 -1
-9 4 -9 13 0 9 4 14 9 13 5 -2 10 -8 10 -13z m-1722 -10 c11 -13 5 -15 -46
-17 l-59 -2 53 -3 c28 -2 52 -6 52 -8 0 -40 -67 -47 -138 -15 -71 32 -42 57
69 59 39 1 60 -4 69 -14z m1609 6 c64 -18 2 -63 -89 -65 -44 -1 -55 2 -58 16
-3 14 6 18 45 21 47 3 46 3 -11 5 -55 2 -58 3 -40 17 20 15 108 19 153 6z
m-1529 -15 c0 -2 3 -11 6 -20 8 -20 -64 -52 -80 -36 -8 8 -3 18 17 36 24 21
57 32 57 20z m1348 -12 c27 -19 31 -60 5 -49 -10 4 -31 12 -46 17 -20 8 -25
13 -17 23 5 6 7 15 3 18 -13 14 34 6 55 -9z m-1323 -55 c-1 -12 -10 -26 -21
-31 -10 -6 -29 -20 -41 -31 -18 -16 -25 -17 -37 -8 -10 9 -16 9 -21 1 -5 -8
-27 -9 -69 -5 -66 8 -103 22 -90 35 14 13 114 40 147 40 40 0 29 -24 -14 -29
l-34 -4 30 -7 c23 -5 36 -1 55 15 21 19 67 41 91 44 3 1 5 -8 4 -20z m1320 -8
c32 -18 44 -46 26 -64 -8 -8 -17 -5 -33 10 -13 11 -33 26 -45 32 -13 6 -23 21
-23 32 0 23 22 20 75 -10z m147 -7 c92 -26 77 -46 -45 -60 -54 -6 -57 -5 -57
15 0 16 6 21 28 22 l27 1 -29 7 c-16 3 -31 12 -34 19 -5 17 39 15 110 -4z
m-1753 -11 c-14 -17 -33 -17 -23 0 4 7 3 9 -2 4 -5 -5 -9 -14 -9 -20 0 -10
-18 -13 -54 -8 -7 1 -8 31 -2 37 1 0 23 0 51 0 40 1 48 -2 39 -13z m-240 -33
c30 -6 95 -10 144 -10 125 0 210 -27 140 -45 -21 -5 -24 -8 -12 -16 7 -5 10
-9 4 -9 -5 0 -3 -5 5 -11 13 -9 12 -10 -2 -5 -10 3 -20 1 -23 -3 -10 -16 -255
-6 -323 14 -65 18 -151 82 -139 101 6 11 97 3 206 -16z m2505 21 c11 -17 -43
-68 -93 -90 -54 -23 -156 -40 -237 -41 -38 0 -55 5 -68 19 -17 19 -17 20 16
24 18 2 3 5 -34 5 -70 2 -98 8 -98 23 0 15 75 29 165 29 50 1 144 9 210 20 66
10 123 19 127 19 4 1 9 -3 12 -8z m-1968 -12 c3 -6 -10 -27 -30 -48 -20 -20
-36 -46 -36 -56 -1 -20 -1 -20 -15 -1 -23 30 -18 55 16 87 33 30 53 36 65 18z
m1285 -17 c33 -29 42 -73 20 -95 -8 -8 -11 -7 -11 6 0 9 -16 35 -36 57 -32 36
-38 60 -14 60 6 0 24 -13 41 -28z m-1240 -24 c7 -13 17 -26 22 -30 10 -6 -6
-82 -25 -120 -11 -22 -44 -23 -52 -2 -11 29 -6 50 25 100 30 47 30 48 5 25
-14 -14 -31 -39 -38 -58 -13 -36 -23 -41 -32 -17 -13 33 -5 58 30 90 42 40 49
41 65 12z m1203 -18 c39 -44 43 -57 23 -84 -12 -16 -15 -14 -31 23 -10 22 -29
50 -42 62 -13 12 -21 26 -18 30 11 18 33 8 68 -31z m-1354 -9 c0 -17 -6 -31
-16 -35 -28 -11 -90 -6 -109 8 -18 13 -18 14 5 26 31 17 69 28 98 29 18 1 22
-4 22 -28z m1544 8 c51 -24 27 -49 -47 -49 -52 0 -62 7 -62 44 -1 27 0 28 41
22 23 -3 53 -11 68 -17z m-230 -32 c34 -45 43 -89 21 -107 -25 -21 -45 -2 -65
62 -12 40 -14 60 -7 67 17 17 24 14 51 -22z m-1073 -12 c2 -40 -2 -110 -7
-128 -4 -13 -14 -17 -32 -15 -26 3 -27 5 -26 63 0 33 6 70 12 82 15 28 52 27
53 -2z m1010 -8 c7 -18 14 -54 14 -82 0 -49 -1 -50 -30 -50 -30 0 -30 1 -38
70 -9 81 -7 90 21 92 14 1 24 -8 33 -30z m415 12 c15 -15 12 -16 -30 -14 -25
1 -49 5 -53 8 -3 4 -1 7 6 7 7 0 10 4 7 9 -10 15 53 6 70 -10z m-1649 -25 c9
-25 -29 -56 -65 -52 -30 3 -31 4 -19 28 10 20 36 35 70 39 4 1 10 -6 14 -15z
m1481 -12 c21 -27 14 -42 -18 -42 -17 0 -38 9 -51 23 -12 12 -19 15 -16 7 26
-70 30 -90 17 -104 -10 -14 -15 -14 -32 -2 -11 8 -27 24 -35 36 -17 23 -20 17
45 83 26 27 68 26 90 -1z m-1589 -6 c-9 -6 -14 -17 -12 -23 3 -7 0 -13 -5 -13
-6 0 -12 5 -14 10 -2 7 -16 8 -43 1 -22 -5 -32 -9 -22 -10 9 -1 17 -9 16 -18
0 -12 -2 -13 -6 -5 -4 10 -8 9 -17 -3 -6 -9 -29 -20 -51 -25 -54 -13 -148 -13
-140 0 4 6 -5 7 -23 4 -54 -11 -160 32 -137 55 18 18 169 36 320 37 113 1 145
-1 134 -10z m444 -36 c15 0 38 -56 30 -76 -9 -23 -39 -16 -52 12 -6 15 -14 47
-17 73 l-5 46 16 -27 c9 -16 21 -28 28 -28z m765 -24 c-14 -53 -39 -79 -59
-59 -8 8 -8 20 1 47 13 41 27 46 33 14 4 -19 4 -18 6 5 0 16 6 38 13 50 18 32
21 3 6 -57z m71 9 c1 -66 -27 -102 -57 -72 -12 12 -12 24 -1 70 18 81 57 82
58 2z m731 42 c36 -7 65 -16 65 -21 0 -23 -55 -48 -108 -50 -30 0 -53 -4 -50
-8 6 -12 -89 -10 -147 3 -27 6 -50 15 -50 20 0 6 -4 7 -10 4 -5 -3 -10 -2 -10
4 0 5 -9 8 -21 6 -16 -3 -19 0 -14 15 4 12 2 20 -4 20 -6 0 -12 -8 -12 -17 -1
-15 -2 -15 -6 2 -3 11 -13 25 -21 31 -22 16 296 9 388 -9z m-1864 -23 c-3 -8
0 -11 10 -7 9 3 14 -2 14 -15 0 -22 -56 -75 -71 -66 -14 8 -11 50 6 91 13 30
17 34 30 23 9 -7 14 -19 11 -26z m244 10 c0 -12 5 -35 10 -49 19 -49 -26 -90
-50 -46 -5 11 -10 42 -10 69 0 46 2 50 25 50 19 0 25 -6 25 -24z m-430 -15 c0
-5 -4 -7 -10 -4 -5 3 -10 1 -10 -6 0 -7 -3 -10 -6 -6 -8 7 4 27 17 27 5 0 9
-5 9 -11z m64 -18 c4 -5 -10 -19 -29 -31 -40 -25 -44 -30 -15 -23 11 3 20 10
21 17 0 6 7 -5 15 -24 l14 -35 -3 40 c-1 28 2 39 11 38 6 -2 12 1 12 7 0 5 7
7 15 4 25 -10 17 -48 -19 -83 -30 -29 -35 -31 -39 -15 -3 13 -5 11 -6 -8 -1
-22 -10 -32 -41 -48 -25 -13 -40 -16 -40 -9 0 7 -9 5 -25 -5 -27 -18 -90 -22
-100 -6 -16 26 77 131 150 168 44 23 71 27 79 13z m1651 -15 c60 -27 145 -117
145 -152 0 -21 -5 -24 -38 -24 -21 0 -47 7 -59 15 -16 11 -22 12 -25 3 -6 -17
-78 29 -78 50 0 15 -2 15 -10 2 -8 -12 -9 -10 -9 10 1 14 4 39 8 55 6 28 7 29
19 10 6 -11 12 -16 12 -11 0 5 7 3 15 -4 8 -7 15 -10 15 -7 0 8 -72 57 -82 57
-5 0 -8 -5 -8 -11 0 -5 5 -7 10 -4 12 7 13 -9 4 -54 l-7 -31 -23 25 c-22 24
-33 74 -16 76 22 2 45 8 50 13 10 10 25 7 77 -18z m-1422 -23 c4 -21 -15 -64
-37 -82 -12 -10 -17 -9 -25 8 -6 11 -11 36 -11 55 0 34 2 36 34 36 25 0 36 -5
39 -17z m1184 1 c8 -21 -9 -86 -23 -91 -18 -6 -57 63 -49 87 8 25 62 28 72 4z
m-1077 -67 c0 -34 -23 -77 -41 -77 -24 0 -51 41 -53 82 -1 26 3 33 19 33 13 0
22 -9 26 -25 6 -22 7 -21 8 9 l1 35 20 -22 c11 -12 20 -27 20 -35z m276 15
c10 -52 -23 -63 -68 -24 -17 14 -24 43 -14 53 3 2 20 4 40 5 33 0 36 -2 42
-34z m384 28 c9 -5 19 -5 26 1 17 14 27 -17 13 -42 -11 -22 -47 -39 -66 -32
-14 5 -17 41 -7 67 7 18 13 19 34 6z m318 -3 c18 7 16 -67 -4 -95 -18 -26 -50
-29 -63 -4 -27 50 -5 117 33 102 12 -4 27 -5 34 -3z m-888 -69 c0 -44 -18 -50
-50 -18 -25 25 -25 44 -2 68 15 17 19 17 35 4 11 -10 17 -29 17 -54z m90 11
c0 -51 -14 -56 -50 -20 -32 32 -39 61 -15 61 8 0 15 4 15 10 0 6 10 5 25 -2
20 -9 25 -18 25 -49z m604 0 c-19 -37 -53 -56 -65 -38 -29 47 23 114 62 81 16
-14 16 -18 3 -43z m-1019 38 c6 -1 13 -11 17 -22 6 -19 6 -18 7 3 1 12 6 22
11 22 17 0 11 -35 -10 -58 -11 -12 -20 -30 -20 -40 0 -22 -38 -60 -104 -101
-59 -37 -66 -38 -66 -8 0 62 107 224 139 212 9 -4 21 -7 26 -8z m1085 -2 c0
-9 6 -12 15 -9 23 9 19 -26 -7 -53 -32 -34 -48 -29 -48 15 0 36 14 62 32 62 4
0 8 -7 8 -15z m276 -3 c5 1 14 -13 21 -32 7 -19 12 -29 12 -22 1 8 6 10 13 6
7 -5 2 5 -10 21 -21 27 -22 29 -6 38 14 8 24 3 47 -24 50 -58 116 -209 92
-209 -11 0 -71 33 -112 63 -40 28 -61 64 -83 139 -9 28 -1 46 10 27 4 -6 11
-9 16 -7z m-1241 -65 c-19 -28 -19 -43 0 -27 13 11 13 8 6 -16 -5 -16 -12 -50
-16 -75 -6 -44 -34 -101 -35 -70 0 8 -14 -5 -30 -27 -19 -27 -38 -42 -52 -42
-20 0 -21 3 -15 68 5 66 35 161 61 195 19 24 50 12 36 -14 -8 -15 -7 -17 5
-13 8 4 15 12 15 18 0 16 21 36 32 30 4 -3 1 -15 -7 -27z m1170 -6 c-4 10 0
19 9 22 30 12 80 -98 92 -201 6 -54 4 -63 -11 -68 -13 -5 -27 2 -49 27 -16 19
-34 34 -39 34 -17 0 -36 50 -37 95 0 25 -7 56 -15 70 -21 36 -18 47 5 20 22
-25 27 -12 9 23 -7 16 -2 13 16 -8 14 -16 23 -23 20 -14z m-915 -34 c0 -11 3
-17 7 -14 3 4 16 -1 27 -10 21 -18 21 -18 2 5 -11 12 -17 24 -14 27 11 11 37
-8 61 -44 22 -34 25 -45 20 -100 -4 -40 -10 -61 -19 -61 -36 0 -114 149 -114
218 0 21 2 22 15 12 8 -7 15 -22 15 -33z m631 -53 c-50 -140 -132 -197 -116
-79 4 30 3 36 -6 25 -8 -12 -9 -8 -4 14 9 42 62 106 88 106 20 0 20 -1 -4 -27
-13 -15 -17 -22 -7 -15 9 7 18 9 20 5 3 -4 3 -2 2 5 -2 6 1 12 6 12 6 0 10 6
10 13 0 7 6 19 13 26 21 21 20 -21 -2 -85z m-781 51 c-24 -25 -16 -35 10 -12
8 6 7 3 -3 -9 -22 -26 -22 -41 0 -23 15 13 15 12 4 -10 -7 -13 -8 -21 -3 -17
12 7 13 -18 5 -73 -3 -26 -7 -31 -14 -20 -7 12 -9 12 -9 0 0 -17 -47 -81 -59
-81 -9 0 -26 39 -36 83 -5 25 7 121 22 171 5 19 6 19 24 -3 18 -22 20 -22 44
-7 14 9 25 22 25 28 0 6 3 8 7 5 3 -4 -4 -18 -17 -32z m60 4 c0 -11 4 -18 8
-15 14 8 59 -45 70 -84 12 -37 2 -114 -16 -132 -35 -35 -83 59 -90 175 -4 66
-2 77 12 77 9 0 16 -8 16 -21z m827 -51 c-7 -84 -21 -134 -48 -169 -24 -31
-50 -17 -62 35 -12 50 -1 99 31 138 15 18 19 27 9 19 -16 -12 -17 -12 -11 5
12 32 15 35 29 24 9 -8 14 -6 19 5 3 8 13 15 22 15 15 0 16 -9 11 -72z m-781
39 c3 -21 1 -21 -20 2 -17 19 -17 19 0 17 9 -2 18 -10 20 -19z m903 -21 c23
-94 8 -211 -28 -211 -8 0 -25 20 -38 44 -13 24 -23 39 -23 32 0 -7 -5 -9 -10
-6 -6 4 -9 30 -8 60 1 34 6 51 13 47 6 -4 6 -1 -1 9 -15 21 -15 56 1 56 8 0
12 -4 9 -8 -2 -4 0 -10 6 -14 5 -3 10 -1 10 6 0 9 3 9 14 0 11 -9 15 -7 19 9
9 33 24 23 36 -24z"/>
<path d="M1370 3010 c14 -11 32 -20 40 -20 8 0 0 9 -18 20 -41 25 -55 25 -22
0z"/>
<path d="M3780 3020 c0 -5 4 -10 9 -10 6 0 13 5 16 10 3 6 -1 10 -9 10 -9 0
-16 -4 -16 -10z"/>
<path d="M3750 3000 c-9 -6 -10 -10 -3 -10 6 0 15 5 18 10 8 12 4 12 -15 0z"/>
<path d="M3760 2799 c0 -5 5 -7 10 -4 6 3 10 8 10 11 0 2 -4 4 -10 4 -5 0 -10
-5 -10 -11z"/>
<path d="M3638 2768 c17 -17 42 -19 35 -2 -3 8 -15 14 -26 14 -16 0 -18 -3 -9
-12z"/>
<path d="M3613 2755 c0 -8 4 -12 9 -9 5 3 6 10 3 15 -9 13 -12 11 -12 -6z"/>
<path d="M1758 2793 c7 -3 16 -2 19 1 4 3 -2 6 -13 5 -11 0 -14 -3 -6 -6z"/>
<path d="M3388 2893 c7 -3 16 -2 19 1 4 3 -2 6 -13 5 -11 0 -14 -3 -6 -6z"/>
<path d="M3338 2883 c7 -3 16 -2 19 1 4 3 -2 6 -13 5 -11 0 -14 -3 -6 -6z"/>
<path d="M2796 2133 c-6 -14 -5 -15 5 -6 7 7 10 15 7 18 -3 3 -9 -2 -12 -12z"/>
<path d="M2769 2093 c-13 -16 -12 -17 4 -4 16 13 21 21 13 21 -2 0 -10 -8 -17
-17z"/>
<path d="M3728 2693 c-16 -2 -28 -8 -28 -12 0 -11 49 -1 56 10 3 5 4 8 2 8 -2
-1 -15 -4 -30 -6z"/>
<path d="M3510 2526 c0 -2 8 -10 18 -17 15 -13 16 -12 3 4 -13 16 -21 21 -21
13z"/>
<path d="M3549 2517 c6 -6 18 -12 27 -13 12 -2 14 0 5 9 -6 6 -18 12 -27 13
-12 2 -14 0 -5 -9z"/>
<path d="M1599 2513 c-13 -16 -12 -17 4 -4 9 7 17 15 17 17 0 8 -8 3 -21 -13z"/>
<path d="M1584 2422 c2 -4 20 -7 40 -6 20 1 33 -2 30 -7 -3 -5 -9 -7 -14 -4
-5 3 -11 2 -14 -3 -10 -17 24 -8 41 10 15 17 14 18 -36 18 -29 0 -50 -3 -47
-8z"/>
<path d="M1914 2468 l-19 -23 23 19 c21 18 27 26 19 26 -2 0 -12 -10 -23 -22z"/>
<path d="M1969 2443 l-24 -28 28 24 c25 23 32 31 24 31 -2 0 -14 -12 -28 -27z"/>
<path d="M1798 2413 c7 -3 16 -2 19 1 4 3 -2 6 -13 5 -11 0 -14 -3 -6 -6z"/>
<path d="M2061 2344 c0 -11 3 -14 6 -6 3 7 2 16 -1 19 -3 4 -6 -2 -5 -13z"/>
<path d="M2201 2284 c0 -11 3 -14 6 -6 3 7 2 16 -1 19 -3 4 -6 -2 -5 -13z"/>
<path d="M3452 2325 c10 -10 49 -14 43 -4 -4 5 -16 9 -27 9 -12 0 -19 -2 -16
-5z"/>
<path d="M1870 2195 c-7 -9 -10 -18 -6 -22 3 -3 6 -1 6 6 0 7 5 9 10 6 6 -3
10 1 10 9 0 20 -4 20 -20 1z"/>
<path d="M2051 2004 c0 -11 3 -14 6 -6 3 7 2 16 -1 19 -3 4 -6 -2 -5 -13z"/>
<path d="M2191 1994 c0 -11 3 -14 6 -6 3 7 2 16 -1 19 -3 4 -6 -2 -5 -13z"/>
<path d="M2962 2015 c0 -16 2 -22 5 -12 2 9 2 23 0 30 -3 6 -5 -1 -5 -18z"/>
<path d="M3091 2044 c0 -11 3 -14 6 -6 3 7 2 16 -1 19 -3 4 -6 -2 -5 -13z"/>
<path d="M699 4510 c-20 -10 -76 -65 -124 -120 -85 -99 -87 -102 -69 -120 11
-10 91 -80 179 -155 l160 -136 42 48 42 48 -52 46 c-70 63 -59 75 62 71 l88
-4 41 50 42 49 -38 7 c-20 3 -61 6 -90 6 l-53 0 7 34 c9 50 -4 93 -38 132 -58
66 -128 81 -199 44z m93 -122 c34 -28 29 -55 -24 -117 l-28 -32 -40 32 c-22
18 -40 35 -40 38 0 3 17 25 39 49 40 43 65 51 93 30z"/>
<path d="M4310 4374 c-85 -74 -163 -143 -172 -152 -17 -17 -16 -20 25 -65 l42
-47 178 156 177 157 -37 42 c-21 24 -42 43 -48 44 -5 0 -80 -61 -165 -135z"/>
<path d="M4470 4117 c-118 -16 -216 -31 -218 -32 -2 -2 11 -27 29 -56 18 -30
33 -55 33 -56 1 -1 20 2 44 7 48 8 43 13 115 -112 l27 -47 -25 -29 c-14 -17
-25 -35 -25 -41 0 -13 53 -111 60 -111 3 1 74 91 158 201 l153 199 -31 55
c-38 66 -17 65 -320 22z m158 -141 c-24 -30 -46 -55 -50 -55 -8 -1 -51 79 -46
84 4 4 96 22 121 24 14 1 8 -11 -25 -53z"/>
<path d="M300 3970 c-44 -88 -80 -162 -80 -165 0 -3 94 -52 210 -110 l210
-105 80 160 c44 88 80 162 80 165 0 2 -22 16 -48 29 l-49 25 -49 -101 c-27
-55 -52 -102 -56 -104 -9 -6 -58 17 -58 28 0 5 20 49 45 98 l45 90 -50 25 -50
25 -46 -92 c-25 -51 -48 -94 -49 -96 -3 -3 -44 15 -54 24 -2 2 20 48 48 103
28 54 51 102 51 105 0 3 -22 17 -50 31 l-50 25 -80 -160z"/>
<path d="M4870 3711 c-41 -15 -137 -49 -212 -75 l-137 -48 56 -161 c31 -89 57
-163 58 -164 2 -3 97 28 104 33 1 1 -13 48 -33 104 -20 56 -36 102 -36 104 0
1 76 29 169 61 l168 59 -19 58 c-11 32 -25 58 -31 58 -7 -1 -46 -13 -87 -29z"/>
<path d="M144 3613 c-9 -32 -17 -61 -18 -65 0 -4 59 -50 132 -102 96 -69 127
-96 115 -100 -10 -3 -79 -8 -155 -12 -75 -4 -141 -10 -148 -14 -12 -7 -44
-119 -37 -126 10 -10 491 47 499 59 10 16 33 116 27 121 -32 26 -391 296 -394
296 -2 0 -12 -26 -21 -57z"/>
<path d="M4860 3230 c-118 -16 -216 -29 -216 -29 -1 -1 2 -27 11 -84 l6 -38
62 6 c53 5 66 3 87 -14 l25 -20 -77 -78 c-85 -86 -80 -70 -62 -192 l6 -34 116
116 117 117 113 -81 c62 -45 114 -79 116 -78 1 2 -2 36 -7 74 l-8 70 -99 70
c-55 39 -94 73 -88 77 6 3 47 9 90 13 l78 7 -6 42 c-10 75 -14 86 -32 85 -9
-1 -114 -14 -232 -29z"/>
<path d="M17 2983 c-2 -32 -3 -59 -2 -61 5 -5 460 -40 464 -36 3 3 7 31 9 64
3 46 1 60 -9 60 -8 0 -93 7 -189 15 -96 8 -196 15 -221 15 l-47 0 -5 -57z"/>
<path d="M220 2784 c-80 -7 -162 -13 -182 -13 l-38 -1 7 -62 c3 -35 7 -64 7
-65 1 -1 57 2 125 8 67 6 124 9 127 7 2 -2 -50 -49 -116 -103 l-119 -100 0
-64 -1 -63 98 7 c53 4 160 12 236 18 l140 12 -3 60 c-1 33 -4 61 -6 63 -1 2
-58 -2 -125 -8 -68 -5 -125 -9 -127 -6 -2 2 50 49 117 105 113 97 120 104 120
139 0 20 -3 47 -6 60 -7 26 -25 27 -254 6z"/>
<path d="M4811 2719 c-189 -76 -212 -351 -37 -454 165 -96 366 25 366 220 0
145 -101 245 -245 244 -33 0 -71 -5 -84 -10z m149 -134 c56 -29 77 -109 43
-166 -50 -85 -188 -70 -220 24 -35 105 76 194 177 142z"/>
<path d="M265 2195 c-72 -24 -143 -48 -157 -54 l-27 -10 20 -60 20 -59 140 49
c77 27 150 49 163 49 40 0 83 -70 71 -117 -7 -29 -23 -37 -180 -94 -144 -52
-141 -49 -108 -126 l18 -42 148 53 c199 71 236 101 245 195 9 99 -45 207 -122
242 -59 27 -86 24 -231 -26z"/>
<path d="M4935 2060 c-10 -33 -22 -60 -26 -60 -4 0 -80 25 -169 56 -89 30
-164 53 -166 51 -2 -2 -12 -28 -23 -58 l-18 -54 164 -57 c91 -31 167 -59 170
-62 3 -3 -4 -31 -15 -64 l-20 -59 51 -16 c28 -9 53 -14 55 -12 6 6 122 344
122 355 0 7 -82 40 -100 40 -4 0 -15 -27 -25 -60z"/>
<path d="M4590 1205 c0 -23 4 -25 45 -25 l45 0 0 -130 0 -130 30 0 30 0 0 130
0 130 45 0 c41 0 45 2 45 25 l0 25 -120 0 -120 0 0 -25z"/>
<path d="M4870 1075 l0 -155 25 0 25 0 0 117 c0 64 3 113 8 109 4 -4 18 -55
32 -114 25 -106 26 -107 55 -107 28 0 29 2 56 108 15 60 30 111 33 114 3 4 6
-46 6 -110 l0 -117 25 0 25 0 0 155 0 155 -43 0 -44 0 -23 -87 c-35 -137 -32
-139 -80 45 -11 42 -11 42 -55 42 l-45 0 0 -155z"/>
<path d="M826 929 c-35 -10 -75 -47 -124 -114 -20 -27 -69 -89 -109 -138 -87
-105 -106 -139 -107 -194 -1 -50 22 -84 88 -130 57 -39 108 -51 142 -33 20 11
24 21 24 59 0 54 -16 81 -65 111 -19 12 -35 25 -35 28 0 4 15 23 32 42 l31 34
54 -59 c30 -33 78 -91 108 -130 120 -159 188 -194 249 -127 29 33 4 96 -54
139 -86 64 -90 69 -90 110 0 42 16 70 40 73 42 6 68 -7 185 -94 350 -257 729
-421 1116 -483 147 -23 439 -23 588 0 383 60 778 229 1112 478 151 112 198
126 229 69 21 -39 4 -88 -41 -118 -91 -61 -103 -75 -103 -128 -1 -46 1 -50 33
-66 31 -15 38 -16 70 -2 48 20 64 36 133 127 32 44 85 109 119 145 l60 67 29
-35 c16 -19 30 -38 30 -42 0 -4 -17 -19 -39 -33 -43 -29 -61 -61 -61 -110 0
-39 28 -65 70 -65 34 0 121 51 154 90 53 64 47 122 -24 213 -27 34 -88 113
-135 174 -88 116 -124 145 -180 145 -66 0 -152 -67 -225 -175 l-32 -49 -25 24
c-14 13 -52 58 -85 101 -32 42 -70 85 -84 93 -22 15 -28 15 -67 0 -23 -9 -96
-57 -162 -106 -139 -105 -272 -173 -441 -229 -596 -195 -1257 -103 -1709 238
-129 98 -178 121 -213 102 -12 -6 -41 -37 -64 -69 -23 -31 -60 -78 -81 -104
-46 -56 -45 -56 -112 38 -71 99 -161 151 -229 133z m493 -208 c-17 -26 -4 -51
26 -51 18 0 25 5 25 20 0 13 7 20 20 20 13 0 18 -5 14 -15 -9 -21 36 -56 63
-50 18 4 21 2 16 -11 -4 -11 2 -23 18 -35 24 -18 24 -17 52 8 32 32 43 25 52
-32 5 -33 2 -45 -19 -70 l-26 -30 -24 28 c-14 15 -31 27 -38 27 -7 0 -40 21
-73 47 -47 37 -66 46 -93 45 -19 -2 -40 2 -48 9 -23 19 -17 65 12 88 33 26 37
26 23 2z m2597 -17 l27 -35 -26 -25 c-14 -13 -31 -24 -37 -24 -5 0 -10 -4 -10
-8 0 -11 -149 -112 -164 -112 -15 0 -86 112 -79 124 6 9 26 -12 48 -49 11 -17
12 -17 38 0 17 11 26 24 22 33 -4 10 0 12 11 8 19 -7 54 13 95 55 16 16 34 29
41 30 10 0 10 2 1 6 -15 5 -18 33 -4 33 6 0 22 -16 37 -36z m-206 -55 c0 -5
-6 -9 -14 -9 -8 0 -16 -6 -19 -12 -2 -7 -8 -10 -11 -6 -4 3 1 15 11 26 18 19
33 20 33 1z m-2340 -59 c0 -5 7 -10 15 -10 8 0 15 -4 15 -10 0 -15 -12 -12
-40 10 -20 16 -22 20 -7 20 9 0 17 -4 17 -10z m2287 -72 c38 -43 34 -98 -7
-98 -18 0 -18 2 -4 35 14 34 14 36 -11 45 -26 10 -35 40 -12 40 8 0 23 -10 34
-22z m-2025 -10 c-18 -18 -14 -46 7 -58 27 -14 30 -13 24 10 -9 32 23 35 76 7
l47 -26 26 26 c32 31 45 24 59 -31 7 -30 18 -47 35 -55 32 -14 31 -14 37 9 3
11 10 20 17 20 12 0 8 -19 -16 -77 l-13 -32 -58 25 c-32 14 -65 32 -74 40 -8
8 -21 14 -27 14 -23 0 -62 24 -62 39 0 12 -3 11 -13 -4 -11 -14 -21 -17 -47
-11 -44 8 -60 23 -60 54 0 26 25 62 44 62 6 0 5 -5 -2 -12z m1923 -10 c25 -19
55 -73 55 -97 0 -17 -31 -41 -52 -41 l-21 0 21 23 c28 29 28 37 1 30 -29 -8
-49 20 -49 69 0 44 7 46 45 16z m-190 -95 c8 -19 15 -37 15 -39 0 -4 -125 -62
-170 -79 -76 -28 -93 -36 -88 -40 3 -3 31 4 62 16 61 24 81 20 50 -11 -22 -21
-123 -62 -136 -54 -12 7 -10 69 3 98 8 17 32 32 85 52 41 16 74 32 74 36 0 5
9 8 20 8 11 0 20 5 20 10 0 6 7 10 15 10 8 0 14 3 14 8 -7 44 15 35 36 -15z
m134 21 c23 -29 28 -83 9 -102 -33 -33 -98 2 -98 53 1 18 1 19 11 3 13 -23 32
-23 53 1 15 16 15 19 1 31 -17 14 -20 40 -6 40 5 0 19 -12 30 -26z m-438 -8
c-7 -8 -26 -18 -42 -21 -16 -4 -29 -11 -29 -17 0 -6 -6 -6 -15 2 -24 20 -18
30 18 30 17 0 39 5 47 10 22 14 34 12 21 -4z m-121 -34 c0 -7 -63 -42 -75 -42
-14 0 -2 17 23 32 29 19 52 23 52 10z m-705 -19 c-4 -10 -16 -42 -27 -70 -18
-49 -34 -71 -44 -61 -6 7 38 132 50 140 19 13 28 9 21 -9z m814 -45 c13 -56
14 -98 2 -98 -12 0 -42 125 -35 145 9 23 19 8 33 -47z m-994 -24 c-15 -23 -15
-25 11 -34 15 -6 30 -8 33 -4 3 4 0 9 -6 11 -22 8 -14 45 14 75 38 39 53 36
53 -11 0 -46 -36 -105 -67 -109 -14 -2 -27 5 -39 23 -12 18 -22 24 -36 19 -19
-6 -48 10 -48 27 0 4 15 9 33 11 25 2 33 8 36 28 1 14 8 28 15 32 18 12 19
-40 1 -68z m885 51 c0 -8 -9 -15 -19 -15 -11 0 -23 -4 -26 -10 -3 -5 -1 -10 5
-10 22 0 60 -49 60 -79 0 -29 -1 -29 -67 -36 -38 -4 -88 -10 -113 -15 -44 -9
-43 -9 18 -7 34 1 62 0 62 -2 0 -3 -7 -13 -17 -23 -13 -14 -31 -18 -85 -18
-62 0 -68 2 -68 20 0 29 27 78 49 90 11 5 35 10 54 10 89 0 165 23 105 32 -35
5 -36 43 -1 62 36 19 43 20 43 1z m-542 -57 c-3 -51 -2 -53 25 -56 16 -2 36 3
44 10 15 11 16 11 10 -4 -18 -47 -19 -52 -2 -29 16 21 22 23 82 16 46 -5 63
-4 59 4 -4 6 -14 11 -22 11 -8 0 -14 7 -14 15 0 26 35 17 65 -16 23 -27 26
-36 19 -58 -10 -26 -10 -26 -103 -22 -87 3 -93 2 -98 -18 -9 -34 -26 -24 -21
12 3 29 1 33 -14 29 -10 -2 -29 -1 -44 2 -25 7 -25 8 -18 74 5 56 15 81 32 82
1 0 1 -24 0 -52z m-498 1 c0 -5 -7 -9 -15 -9 -15 0 -20 12 -9 23 8 8 24 -1 24
-14z m431 -72 c-15 -40 -53 -54 -86 -33 -27 18 -31 41 -13 81 14 32 27 33 21
1 -4 -18 0 -26 16 -31 28 -8 41 1 41 30 0 13 6 25 13 28 16 5 21 -41 8 -76z
m273 -98 c-3 -5 -10 -7 -15 -3 -5 3 -7 10 -3 15 3 5 10 7 15 3 5 -3 7 -10 3
-15z"/>
<path d="M1550 580 c0 -5 5 -10 10 -10 6 0 10 5 10 10 0 6 -4 10 -10 10 -5 0
-10 -4 -10 -10z"/>
<path d="M1565 550 c3 -5 10 -10 16 -10 5 0 9 5 9 10 0 6 -7 10 -16 10 -8 0
-12 -4 -9 -10z"/>
<path d="M1810 440 c0 -5 5 -10 10 -10 6 0 10 5 10 10 0 6 -4 10 -10 10 -5 0
-10 -4 -10 -10z"/>
<path d="M1836 422 c-3 -6 -1 -14 5 -17 15 -10 25 3 12 16 -7 7 -13 7 -17 1z"/>
<path d="M3520 480 c0 -5 7 -10 16 -10 8 0 12 5 9 10 -3 6 -10 10 -16 10 -5 0
-9 -4 -9 -10z"/>
<path d="M2125 330 c3 -5 11 -10 16 -10 6 0 7 5 4 10 -3 6 -11 10 -16 10 -6 0
-7 -4 -4 -10z"/>
</g>
</svg>
